<svg width="109" height="103" viewBox="0 0 109 103" fill="none" xmlns="http://www.w3.org/2000/svg">
<path d="M30.5 71.5V62.5M30.5 28.5V37M30.5 37C32.6667 36.8333 37 35.4 37 31V42M30.5 37C25.3 37 23.6667 33 23.5 31C23.5 33.6224 23.5 37.7582 23.5 42M30.5 37V45.5M30.5 62.5C36.1 61.7 37.1667 57.1667 37 55V50.5M30.5 62.5C28.1667 62.3333 23.5 60.6 23.5 55C23.5 53.7867 23.5 52.2386 23.5 50.5M30.5 62.5V54M30.5 45.5L37 42M30.5 45.5L23.5 42M30.5 45.5V54M37 42V50.5M23.5 42C23.5 44.9384 23.5 47.9276 23.5 50.5M30.5 54L37 50.5M30.5 54L23.5 50.5" stroke="#F09E4C" stroke-width="3"/>
<path d="M61.1 60.5L56 51M61.1 60.5L79 62M61.1 60.5V67M56 51L73 54L79 62M56 51L48 58.5V67C52.1667 67 61.1 67 61.1 67M79 62V69.5L61.1 67" stroke="#F09E4C" stroke-width="3"/>
<path d="M108 81.5C101.333 76.3333 81.0029 66.4997 53 66.5C38.5 66.5002 7 80.5 2 91M108 81.5C103 77.9999 89.4 71.3998 75 72.9998C57 74.9998 42.5 91.9998 40 96.9998M108 81.5C100.5 76.4999 81.3 67.3998 64.5 70.9998C43.5 75.4998 32.5 80.4998 18.5 101.5" stroke="#F09E4C" stroke-width="3"/>
<circle cx="63" cy="29" r="8.5" stroke="#F09E4C" stroke-width="3"/>
<circle cx="50.5" cy="45.5" r="44" stroke="#F09E4C" stroke-width="3"/>
</svg>
